<?xml version="1.0" encoding="utf-8"?>
<!-- Generator: Adobe Illustrator 27.2.0, SVG Export Plug-In . SVG Version: 6.00 Build 0)  -->
<svg version="1.1" id="Layer_1" xmlns="http://www.w3.org/2000/svg" xmlns:xlink="http://www.w3.org/1999/xlink" x="0px" y="0px"
	 viewBox="0 0 800 800" style="enable-background:new 0 0 800 800;" xml:space="preserve">
<style type="text/css">
	.st0{fill:#FFFFFF;}
	.st1{fill-rule:evenodd;clip-rule:evenodd;fill:#FFFFFF;}
</style>
<rect class="st0" width="800" height="800"/>
<path class="st1" d="M402.1,460.1c0.8,0.5,1.5,1,2.3,1.5l166.2,103.9c42.7,26.7,98.1-4,98.1-54.4V288.9c0-50.4-55.4-81.1-98.1-54.4
	L404.5,338.4c-0.8,0.5-1.6,1-2.3,1.5v-28.8c0-45.4-49-73.9-88.5-51.3l-148.1,84.6c-43,24.6-43,86.6,0,111.2l148.1,84.6
	c39.4,22.5,88.5-5.9,88.5-51.3v-28.8H402.1z"/>
</svg>
