<?xml version="1.0" encoding="UTF-8"?>
<svg id="Layer_2" data-name="Layer 2" xmlns="http://www.w3.org/2000/svg" viewBox="0 0 280.2 290.69">
  <defs>
    <style>
      .cls-1 {
        fill: #fff;
      }
    </style>
  </defs>
  <g id="Layer_1-2" data-name="Layer 1">
    <path class="cls-1" d="m109.93,168.04c-2.2,1.88-5.32,2.81-9.38,2.8-3.47,0-6.91-.7-10.1-2.05-3.38-1.43-6.48-3.43-9.16-5.93v14.56c2.68,2.05,5.7,3.6,8.93,4.57,3.77,1.1,7.69,1.63,11.62,1.56,3.3.02,6.58-.54,9.69-1.64,2.99-1.03,5.73-2.67,8.05-4.82,5.02-4.46,7.52-10.29,7.52-17.49,0-5.08-1.35-9.39-4.05-12.91-2.85-3.62-6.78-6.25-11.22-7.51l14.89-28.54v-.34h-44.84v13.15h24.54l-12.45,23.68v.36c5.81-.16,10.47.82,13.98,2.93,3.37,1.85,5.42,5.44,5.29,9.28,0,3.68-1.1,6.46-3.29,8.34Zm53.24,12.85c7.22,3.52,15.67,3.52,22.89,0,3.58-1.84,6.69-4.47,9.1-7.7,2.64-3.57,4.61-7.58,5.81-11.85,2.74-9.83,2.74-20.22,0-30.05-1.2-4.28-3.17-8.3-5.81-11.87-2.41-3.22-5.52-5.85-9.1-7.68-7.22-3.53-15.67-3.53-22.89,0-3.58,1.83-6.69,4.46-9.1,7.68-2.65,3.57-4.62,7.59-5.81,11.87-2.74,9.83-2.74,20.22,0,30.05,1.2,4.27,3.17,8.29,5.81,11.85,2.41,3.22,5.52,5.86,9.1,7.7Zm1.23-52.07c2.35-4.22,5.76-6.34,10.22-6.34s7.77,2.14,10.16,6.45,3.58,10.09,3.58,17.38-1.16,13.17-3.46,17.44-5.73,6.4-10.27,6.4-8.11-2.3-10.45-6.93c-2.2-3.84-3.3-9.47-3.29-16.91.01-7.43,1.18-13.26,3.52-17.49h0Z"/>
    <path class="cls-1" d="m277.6,123.85C263.02,48.91,190.88-.37,115.88,12.73l-4.56-12.73-36.27,37.99,52.14,6.25-4.41-12.28c63.05-9.3,122.9,32.64,135.16,95.75,12.59,65.1-29.99,128.07-95.08,140.66-65.1,12.59-128.07-29.99-140.66-95.08-2.95-15.26-2.91-30.94.12-46.18l-19.61-3.91c-15.07,75.96,34.29,149.75,110.25,164.81,8.84,1.75,17.83,2.65,26.84,2.68,9.07-.01,18.12-.89,27.03-2.62,75.94-14.76,125.53-88.28,110.77-164.22Z"/>
  </g>
</svg>