<?xml version="1.0" encoding="UTF-8"?>
<svg id="Layer_2" data-name="Layer 2" xmlns="http://www.w3.org/2000/svg" viewBox="0 0 600.1 600.1">
  <defs>
    <style>
      .cls-1 {
        fill: #fff;
      }
    </style>
  </defs>
  <g id="Layer_1-2" data-name="Layer 1">
    <path class="cls-1" d="m590.34,9.76c-13.02-13.02-34.12-13.02-47.14,0l-243.15,243.15L56.9,9.76C43.89-3.25,22.78-3.25,9.76,9.76c-13.02,13.02-13.02,34.12,0,47.14l243.15,243.15L9.76,543.19c-13.02,13.02-13.02,34.12,0,47.14,13.02,13.02,34.12,13.02,47.14,0l243.14-243.15,243.15,243.15c13.02,13.02,34.12,13.02,47.14,0,13.02-13.02,13.02-34.12,0-47.14l-243.15-243.15,243.15-243.15c13.02-13.02,13.02-34.12,0-47.14Z"/>
  </g>
</svg>