<?xml version="1.0" encoding="UTF-8"?>
<svg id="Layer_1" data-name="Layer 1" xmlns="http://www.w3.org/2000/svg" viewBox="0 0 666.67 666.67">
  <defs>
    <style>
      .cls-1 {
        fill: #fff;
      }
    </style>
  </defs>
  <path class="cls-1" d="m0,133.33C0,70.48,0,39.05,19.53,19.53,39.05,0,70.48,0,133.33,0s94.28,0,113.81,19.53c19.53,19.53,19.53,50.95,19.53,113.81v400c0,62.85,0,94.28-19.53,113.81-19.53,19.53-50.95,19.53-113.81,19.53s-94.28,0-113.81-19.53C0,627.61,0,596.19,0,533.33V133.33Z"/>
  <path class="cls-1" d="m400,133.33c0-62.85,0-94.28,19.53-113.81C439.05,0,470.48,0,533.33,0s94.28,0,113.81,19.53c19.53,19.53,19.53,50.95,19.53,113.81v400c0,62.85,0,94.28-19.53,113.81s-50.95,19.53-113.81,19.53-94.28,0-113.81-19.53-19.53-50.95-19.53-113.81V133.33Z"/>
</svg>